<svg width="24" height="24" viewBox="0 0 24 24" fill="none" xmlns="http://www.w3.org/2000/svg">
<path d="M20.0192 14C20.5609 14 21.0069 13.5588 20.9326 13.0222C20.6886 11.2609 19.7904 9.6111 18.364 8.34315C16.6761 6.84285 14.387 6 12 6C9.61306 6 7.32387 6.84285 5.63605 8.34315C4.20959 9.6111 3.31142 11.2609 3.06745 13.0222C2.99313 13.5588 3.43915 14 3.98086 14C4.52257 14 4.95308 13.5575 5.04782 13.0242C5.27836 11.7264 5.96485 10.5169 7.02318 9.57615C8.34312 8.40288 10.1333 7.74374 12 7.74374C13.8667 7.74374 15.6569 8.40288 16.9768 9.57615C18.0352 10.5169 18.7217 11.7264 18.9522 13.0242C19.0469 13.5575 19.4774 14 20.0192 14Z" fill="#3B3B3B"/>
<path fill-rule="evenodd" clip-rule="evenodd" d="M12 13C10.8954 13 10 13.8954 10 15C10 16.1046 10.8954 17 12 17C13.1046 17 14 16.1046 14 15C14 13.8954 13.1046 13 12 13ZM8.00001 15C8.00001 12.7909 9.79087 11 12 11C14.2091 11 16 12.7909 16 15C16 17.2091 14.2091 19 12 19C9.79087 19 8.00001 17.2091 8.00001 15Z" fill="#3B3B3B"/>
</svg>
