<svg width="24" height="24" viewBox="0 0 24 24" fill="none" xmlns="http://www.w3.org/2000/svg">
<path d="M20.0191 14C20.5608 14 21.0069 13.5588 20.9325 13.0222C20.6886 11.2609 19.7904 9.6111 18.364 8.34314C16.6761 6.84285 14.3869 6 12 6C9.61304 6 7.32386 6.84285 5.63603 8.34314C4.20958 9.6111 3.3114 11.2609 3.06743 13.0222C2.99311 13.5588 3.43913 14 3.98084 14C4.52255 14 4.95306 13.5575 5.04781 13.0242C5.27835 11.7264 5.96483 10.5169 7.02316 9.57615C8.3431 8.40287 10.1333 7.74373 12 7.74373C13.8667 7.74373 15.6569 8.40287 16.9768 9.57615C18.0352 10.5169 18.7216 11.7264 18.9522 13.0242C19.0469 13.5575 19.4774 14 20.0191 14Z" fill="#3B3B3B"/>
<path fill-rule="evenodd" clip-rule="evenodd" d="M12 13C10.8954 13 9.99999 13.8954 9.99999 15C9.99999 16.1046 10.8954 17 12 17C13.1046 17 14 16.1046 14 15C14 13.8954 13.1046 13 12 13ZM7.99999 15C7.99999 12.7909 9.79085 11 12 11C14.2091 11 16 12.7909 16 15C16 17.2091 14.2091 19 12 19C9.79085 19 7.99999 17.2091 7.99999 15Z" fill="#3B3B3B"/>
<path d="M2.70384 5.13105C2.31511 4.73873 2.31511 4.10266 2.70384 3.71034C3.09256 3.31803 3.7228 3.31803 4.11153 3.71034L20.3 20.0484C20.6887 20.4408 20.6887 21.0768 20.3 21.4691C19.9113 21.8615 19.281 21.8615 18.8923 21.4691L2.70384 5.13105Z" fill="#3B3B3B"/>
<path d="M2.38333 3.16061C2.17162 2.94695 2.17162 2.60054 2.38333 2.38687C2.59503 2.17321 2.93827 2.17321 3.14998 2.38687L20.783 20.1829C20.9947 20.3965 20.9947 20.7429 20.783 20.9566C20.5713 21.1703 20.228 21.1703 20.0163 20.9566L2.38333 3.16061Z" fill="white"/>
</svg>
